<svg xmlns="http://www.w3.org/2000/svg" version="1.1" xmlns:xlink="http://www.w3.org/1999/xlink" width="200" height="200"><svg xmlns="http://www.w3.org/2000/svg" version="1.1" xmlns:xlink="http://www.w3.org/1999/xlink" viewBox="0 0 200 200"><rect width="200" height="200" fill="url('#gradient')"></rect><defs><linearGradient id="SvgjsLinearGradient1005" gradientTransform="rotate(78 0.5 0.5)"><stop offset="0%" stop-color="#000000"></stop><stop offset="100%" stop-color="#00497e"></stop></linearGradient></defs><g><g fill="#ffffff" transform="matrix(7.520195838433293,0,0,7.520195838433293,7.351849436468129,153.43536344735975)" stroke="#ffffff" stroke-width="0.2"><path d="M12.24-14.22L12.24-11.57L7.97-11.57L7.97 0L4.54 0L4.54-11.57L0.35-11.57L0.35-14.22L12.24-14.22ZM20.86-3.78L20.86-3.78Q20.86-4.53 20.33-4.95Q19.79-5.37 18.46-5.82Q17.12-6.27 16.27-6.69L16.27-6.69Q13.51-8.05 13.51-10.42L13.51-10.42Q13.51-11.60 14.19-12.50Q14.88-13.41 16.14-13.91Q17.40-14.41 18.97-14.41L18.97-14.41Q20.51-14.41 21.72-13.87Q22.94-13.32 23.61-12.31Q24.29-11.30 24.29-10L24.29-10L20.87-10Q20.87-10.87 20.34-11.35Q19.80-11.83 18.90-11.83L18.90-11.83Q17.98-11.83 17.45-11.42Q16.91-11.02 16.91-10.39L16.91-10.39Q16.91-9.84 17.50-9.40Q18.09-8.96 19.56-8.48Q21.04-8.01 21.98-7.46L21.98-7.46Q24.29-6.13 24.29-3.80L24.29-3.80Q24.29-1.93 22.88-0.87Q21.47 0.20 19.02 0.20L19.02 0.20Q17.29 0.20 15.89-0.42Q14.49-1.04 13.78-2.12Q13.08-3.20 13.08-4.61L13.08-4.61L16.51-4.61Q16.51-3.47 17.10-2.92Q17.70-2.38 19.02-2.38L19.02-2.38Q19.87-2.38 20.37-2.75Q20.86-3.12 20.86-3.78Z"></path></g></g></svg><style>@media (prefers-color-scheme: light) { :root { filter: none; } }
@media (prefers-color-scheme: dark) { :root { filter: none; } }
</style></svg>